<svg xmlns="http://www.w3.org/2000/svg"  viewBox="0 0 48 48" width="48px" height="48px" baseProfile="basic"><path fill="#e53935" d="M43.998,24c0-11.046-8.953-20-19.998-20S4.001,12.954,4.001,24s8.954,20,19.998,20	S43.998,35.046,43.998,24z"/><path fill="#ff9800" d="M24.002,4C35.047,4,44,12.954,44,24c0,3.674-0.993,7.116-2.722,10.075l0.325-0.72	c1.979-4.394-1.238-9.367-6.057-9.364l-7.959,0.006c-1.979,0.002-3.584-1.603-3.584-3.581v-7.974c0-4.822-4.979-8.035-9.372-6.049	l-0.64,0.29C16.935,4.977,20.354,4,24.002,4z"/><path fill="#b71c1c" d="M6.453,23h10.094C18.454,23,20,24.546,20,26.453v10.094C20,38.454,18.454,40,16.547,40H6.453	C4.546,40,3,38.454,3,36.547V26.453C3,24.546,4.546,23,6.453,23z"/><path fill="#fff" d="M10.369,33.167v3.176H8.173V26.59h3.392c1.214,0,2.139,0.265,2.773,0.796	c0.639,0.53,0.959,1.317,0.959,2.36c0,1.075-0.358,1.913-1.074,2.516c-0.711,0.603-1.668,0.904-2.869,0.904H10.369z M10.369,28.277	v3.203h0.918c0.544,0,0.963-0.142,1.257-0.428c0.294-0.286,0.442-0.696,0.442-1.231c0-0.494-0.145-0.875-0.435-1.143	c-0.286-0.267-0.696-0.401-1.23-0.401H10.369z"/></svg>