<svg xmlns="http://www.w3.org/2000/svg"  viewBox="0 0 48 48" width="48px" height="48px" baseProfile="basic"><path fill="#283593" d="M9,33.595l14.911-18.706L41,26v13.306C41,41.346,39.346,43,37.306,43H15.332	C11.835,43,9,40.164,9,36.667C9,36.667,9,33.595,9,33.595z"/><linearGradient id="qh2LT5tehRDFkLLfb-odWa" x1="9" x2="33.506" y1="364.445" y2="364.445" gradientTransform="translate(0 -339.89)" gradientUnits="userSpaceOnUse"><stop offset="0" stop-color="#66c0ff"/><stop offset=".26" stop-color="#0094f0"/></linearGradient><path fill="url(#qh2LT5tehRDFkLLfb-odWa)" d="M9,20.208c0-2.624,2.126-4.75,4.749-4.75h21.857L41,12.778v13.527	C41,28.346,39.346,30,37.306,30H15.332C11.835,30,9,32.836,9,36.333L9,20.208L9,20.208z"/><path fill="#1e88e5" fill-opacity=".6" d="M9,20.208c0-2.624,2.126-4.75,4.749-4.75h21.857L41,12.778v13.527	C41,28.346,39.346,30,37.306,30H15.332C11.835,30,9,32.836,9,36.333L9,20.208L9,20.208z"/><path fill="#00e5ff" d="M9,10.333C9,6.836,11.835,4,15.332,4h21.975C39.346,4,41,5.654,41,7.694v5.611	C41,15.346,39.346,17,37.306,17H15.332C11.835,17,9,19.836,9,23.333C9,23.333,9,10.333,9,10.333z"/><path fill="#1565c0" d="M7.5,23h10c1.933,0,3.5,1.567,3.5,3.5v10c0,1.933-1.567,3.5-3.5,3.5h-10C5.567,40,4,38.433,4,36.5	v-10C4,24.567,5.567,23,7.5,23z"/><path fill="#fff" d="M18.327,26.643l-2.092,9.713l-2.501,0.002L12.5,30.529l-1.293,5.829H8.683l-2.01-9.713h2.062	l1.24,6.41l1.232-6.41h2.528l1.291,6.41l1.21-6.41L18.327,26.643L18.327,26.643z"/></svg>